<svg width="720" height="1024" viewBox="0 0 720 1024" fill="none" xmlns="http://www.w3.org/2000/svg">
<mask id="mask0_85_143" style="mask-type:alpha" maskUnits="userSpaceOnUse" x="0" y="0" width="959" height="1251">
<rect y="1250.26" width="1250.26" height="959" transform="rotate(-90 0 1250.26)" fill="white"/>
</mask>
<g mask="url(#mask0_85_143)">
<mask id="mask1_85_143" style="mask-type:luminance" maskUnits="userSpaceOnUse" x="0" y="0" width="959" height="1251">
<path d="M-1.49092e-05 0L0 1250.26L959 1250.26L959 -1.1436e-05L-1.49092e-05 0Z" fill="white"/>
</mask>
<g mask="url(#mask1_85_143)">
<path d="M721.916 1278.83L564.007 1061.29L840.908 985.437L721.916 1278.83Z" fill="#113C52"/>
<path d="M564.007 1061.29L751.971 916.256L840.199 986.271L564.007 1061.29Z" fill="#249597"/>
<path d="M564.007 1061.29L510.303 991.272L751.971 916.256L564.007 1061.29Z" fill="#196576"/>
<path d="M510.303 991.272L690.595 849.576L751.971 916.256L510.303 991.272Z" fill="#91CBC7"/>
<path d="M510.303 991.272L619.629 816.236L690.595 849.576L510.303 991.272Z" fill="#C0DFDC"/>
<path d="M690.595 849.576L679.72 712.881L619.629 816.236L690.595 849.576Z" fill="#5EBBB8"/>
<path d="M751.971 916.256L690.595 849.576L828.096 840.657L751.971 916.256Z" fill="#2DA6A4"/>
<path d="M690.595 849.576L821.019 764.558L679.72 712.881L690.595 849.576Z" fill="#91CBC7"/>
<path d="M690.595 849.576L828.039 840.691L821.019 764.558L690.595 849.576Z" fill="#73B6BE"/>
<path d="M679.72 712.881L821.019 764.558L870.235 535.061L679.72 712.881Z" fill="#A6D3D6"/>
<path d="M679.72 712.881L701.451 540.629L870.235 535.061L679.72 712.881Z" fill="#C0DFDC"/>
<path d="M679.72 712.881L659.907 561.183L701.451 540.629L679.72 712.881Z" fill="#E0E8EC"/>
<path d="M299.323 1092.13L510.303 991.272L489.205 1129.63L299.323 1092.13Z" fill="#C0DFDC"/>
<path d="M489.205 1129.63L510.303 991.272L564.007 1061.29L489.205 1129.63Z" fill="#2DA6A4"/>
<path d="M510.303 991.272L299.323 1092.13L345.355 929.592L510.303 991.272Z" fill="#D6E5E6"/>
<path d="M345.355 929.592L619.629 816.236L510.303 991.272L345.355 929.592Z" fill="#B7D5D4"/>
<path d="M619.629 816.236L567.843 619.528L679.72 712.881L619.629 816.236Z" fill="#E6EDEA"/>
<path d="M567.843 619.528L659.907 561.183L679.72 712.881L567.843 619.528Z" fill="#F4F1F4"/>
<path d="M345.355 929.592L134.375 879.582L299.323 1092.13L345.355 929.592Z" fill="#B7D5D4"/>
<path d="M63.4089 1167.97L134.375 879.582L299.323 1092.13L63.4089 1167.97Z" fill="#C0DFDC"/>
<path d="M63.4089 1167.97L-43.8073 1064.45L134.375 879.582L63.4089 1167.97Z" fill="#91CBC7"/>
<path d="M345.355 929.592L567.843 619.528L619.629 816.236L345.355 929.592Z" fill="#F4F1F4"/>
<path d="M701.451 540.628L795.605 356.14L870.235 535.061L701.451 540.628Z" fill="#A6D3D6"/>
<path d="M494.307 316.132L701.451 540.628L795.605 356.14L494.307 316.132Z" fill="#E6EDEA"/>
<path d="M659.907 561.183L494.307 316.132L701.45 540.629L659.907 561.183Z" fill="#F4F1F4"/>
<path d="M795.605 356.14L744.932 266.122L494.307 316.132L795.605 356.14Z" fill="#C0DFDC"/>
<path d="M494.307 316.132L746.217 100.537L744.932 266.121L494.307 316.132Z" fill="#F4F1F4"/>
<path d="M633.055 557.849L560.171 594.523L552.499 459.495L633.055 557.849Z" fill="#E6EDEA"/>
<path d="M666.773 99.3037L428.001 179.304L560.324 16.7867L666.773 99.3037Z" fill="#E6EDEA"/>
<path d="M368.371 14.4028L418.239 16.0698L389.469 69.4142L368.371 14.4028Z" fill="#F4F1F4"/>
<path d="M329.359 899.586L125.936 849.409L177.703 751.906L329.359 899.586Z" fill="#E6EDEA"/>
<path d="M464.271 244.45L560.171 211.11L485.542 286.826L464.271 244.45Z" fill="#F4F1F4"/>
<path d="M358.781 41.075L324.257 -33.9406L293.569 6.0677L358.781 41.075Z" fill="#F4F1F4"/>
<path d="M-59.6689 991.272L73.9581 854.577L-59.6689 794.564L-59.6689 991.272Z" fill="#F4F1F4"/>
<path d="M515.75 576.036L492.734 508.539L450.672 538.678L515.75 576.036Z" fill="#F4F1F4"/>
<path d="M246.751 791.897L183.457 736.903L215.104 661.887L246.751 791.897Z" fill="#F4F1F4"/>
<path d="M343.437 896.252L383.063 646.201L461.068 677.324L343.437 896.252Z" fill="#F4F1F4"/>
</g>
</g>
</svg>
