<svg width="155" height="40" viewBox="0 0 155 40" fill="none" xmlns="http://www.w3.org/2000/svg">
<path d="M47.9572 0H0V39.8978H47.9572V0Z" fill="#164E63"/>
<path d="M23.5375 18.2275H20.9081C20.8063 17.6651 20.6197 17.1623 20.3398 16.7363C20.0684 16.3102 19.7291 15.9438 19.3305 15.6455C18.9318 15.3473 18.4823 15.1172 17.9903 14.9723C17.4983 14.8189 16.9725 14.7422 16.4296 14.7422C15.4372 14.7422 14.5466 14.9894 13.7578 15.4921C12.969 15.9949 12.3583 16.7363 11.9002 17.6992C11.4507 18.6707 11.2217 19.8551 11.2217 21.2612C11.2217 22.6672 11.4507 23.8688 11.9002 24.8402C12.3498 25.8117 12.969 26.5445 13.7578 27.0388C14.5466 27.533 15.4287 27.7887 16.4126 27.7887C16.9555 27.7887 17.4729 27.712 17.9649 27.5671C18.4568 27.4223 18.9064 27.1922 19.305 26.9024C19.7037 26.6127 20.0429 26.2463 20.3228 25.8202C20.6028 25.3941 20.7894 24.8999 20.8996 24.346H23.529C23.3848 25.2067 23.1134 25.9906 22.7148 26.7064C22.3161 27.4223 21.7987 28.0358 21.171 28.5556C20.5434 29.0754 19.8309 29.4759 19.0251 29.7571C18.2193 30.0384 17.3457 30.1832 16.3957 30.1832C14.9029 30.1832 13.5712 29.8253 12.4007 29.1095C11.2301 28.3937 10.3141 27.3711 9.63553 26.0418C8.96545 24.7124 8.62617 23.1189 8.62617 21.2697C8.62617 19.4205 8.96545 17.827 9.63553 16.4977C10.3056 15.1683 11.2301 14.1457 12.4007 13.4299C13.5712 12.7141 14.9029 12.3562 16.3872 12.3562C17.3033 12.3562 18.1599 12.484 18.9572 12.7482C19.7546 13.0124 20.467 13.3958 21.1032 13.8986C21.7393 14.4014 22.2652 15.0234 22.6808 15.7478C23.0965 16.4721 23.3764 17.3072 23.5206 18.2361L23.5375 18.2275Z" fill="white"/>
<path d="M28.1602 12.5863L32.9695 26.715H33.1646L37.9739 12.5863H40.7899L34.5726 29.9361H31.5615L25.3442 12.5863H28.1602Z" fill="white"/>
<path d="M50.3322 30.1747V12.8163H61.1637V15.066H52.9446V20.3494H60.6039V22.5991H52.9446V27.908H61.2655V30.1576H50.3322V30.1747Z" fill="black"/>
<path d="M66.9738 22.4457V30.1747H64.4547V17.1623H66.8721V19.2842H67.0332C67.3301 18.5939 67.7966 18.04 68.4412 17.6225C69.0774 17.2049 69.8832 16.9919 70.8586 16.9919C71.7407 16.9919 72.5126 17.1794 73.1742 17.5458C73.8358 17.9122 74.3532 18.4661 74.7179 19.1904C75.0826 19.9233 75.2692 20.8181 75.2692 21.8918V30.1662H72.7501V22.19C72.7501 21.2441 72.5041 20.5113 72.0122 19.9744C71.5202 19.4376 70.8501 19.1734 69.9934 19.1734C69.4082 19.1734 68.8908 19.3012 68.4412 19.5569C67.9917 19.8125 67.6354 20.1789 67.3725 20.6732C67.1096 21.1589 66.9823 21.7469 66.9823 22.4371L66.9738 22.4457Z" fill="black"/>
<path d="M81.1642 30.1747H78.6451V12.8163H81.1303V19.2757H81.2915C81.5968 18.5769 82.0548 18.023 82.6825 17.6054C83.3102 17.1964 84.1245 16.9834 85.1253 16.9834C86.0159 16.9834 86.7878 17.1708 87.4579 17.5373C88.128 17.9037 88.6369 18.4491 89.0101 19.1734C89.3833 19.8977 89.5614 20.801 89.5614 21.8918V30.1662H87.0423V22.19C87.0423 21.2356 86.7963 20.4942 86.3043 19.9659C85.8124 19.4376 85.1338 19.1734 84.2602 19.1734C83.6664 19.1734 83.132 19.3012 82.6655 19.5569C82.199 19.8125 81.8258 20.1789 81.5629 20.6732C81.2915 21.1589 81.1642 21.7469 81.1642 22.4371V30.1747Z" fill="black"/>
<path d="M96.7032 30.4644C95.8805 30.4644 95.1426 30.311 94.481 30.0043C93.8194 29.6975 93.2935 29.2458 92.9118 28.6579C92.5301 28.0699 92.335 27.3541 92.335 26.4934C92.335 25.7605 92.4792 25.1555 92.7591 24.6783C93.039 24.2011 93.4207 23.8262 93.8957 23.5535C94.3707 23.2808 94.9051 23.0677 95.4988 22.9229C96.0925 22.778 96.6948 22.6757 97.3055 22.5991C98.0773 22.5053 98.7135 22.4371 99.197 22.3775C99.6804 22.3178 100.028 22.2241 100.249 22.0878C100.469 21.9514 100.58 21.7299 100.58 21.4231V21.3634C100.58 20.6221 100.376 20.0511 99.9603 19.6421C99.5447 19.2331 98.934 19.0285 98.1197 19.0285C97.3055 19.0285 96.6015 19.216 96.118 19.591C95.6345 19.9659 95.2952 20.3835 95.1086 20.8436L92.7422 20.2982C93.0221 19.5057 93.4377 18.8666 93.9805 18.3809C94.5234 17.8952 95.151 17.5373 95.855 17.3157C96.5591 17.0942 97.3055 16.9834 98.0858 16.9834C98.6032 16.9834 99.1545 17.043 99.7313 17.1623C100.317 17.2816 100.859 17.5032 101.368 17.827C101.877 18.1508 102.293 18.611 102.624 19.2075C102.954 19.804 103.116 20.5795 103.116 21.5253V30.1662H100.656V28.3852H100.554C100.393 28.709 100.147 29.0328 99.8246 29.3481C99.5023 29.6634 99.0782 29.9276 98.5693 30.1321C98.0604 30.3451 97.4412 30.4474 96.7287 30.4474L96.7032 30.4644ZM97.2546 28.4278C97.9501 28.4278 98.5523 28.2914 99.0443 28.0102C99.5447 27.729 99.9179 27.3711 100.181 26.9195C100.444 26.4678 100.571 25.9906 100.571 25.4708V23.7921C100.478 23.8858 100.308 23.9625 100.054 24.0392C99.7992 24.1159 99.5108 24.1841 99.18 24.2352C98.8577 24.2863 98.5354 24.3374 98.23 24.3801C97.9162 24.4227 97.6617 24.4567 97.4497 24.4823C96.9577 24.542 96.5166 24.6527 96.1095 24.7976C95.7024 24.9425 95.3885 25.1555 95.151 25.4282C94.9135 25.7009 94.7948 26.0673 94.7948 26.519C94.7948 27.1495 95.0238 27.6182 95.4903 27.942C95.9484 28.2659 96.5421 28.4193 97.2546 28.4193V28.4278Z" fill="black"/>
<path d="M108.977 22.4457V30.1747H106.458V17.1623H108.875V19.2842H109.036C109.333 18.5939 109.799 18.04 110.444 17.6225C111.08 17.2049 111.886 16.9919 112.861 16.9919C113.744 16.9919 114.515 17.1794 115.177 17.5458C115.839 17.9122 116.356 18.4661 116.721 19.1904C117.085 19.9233 117.272 20.8181 117.272 21.8918V30.1662H114.753V22.19C114.753 21.2441 114.507 20.5113 114.015 19.9744C113.523 19.4376 112.853 19.1734 111.996 19.1734C111.411 19.1734 110.894 19.3012 110.444 19.5569C109.995 19.8125 109.638 20.1789 109.375 20.6732C109.112 21.1589 108.985 21.7469 108.985 22.4371L108.977 22.4457Z" fill="black"/>
<path d="M126.093 30.4389C124.838 30.4389 123.761 30.1491 122.862 29.5782C121.963 29.0072 121.267 28.2147 120.784 27.2007C120.3 26.1866 120.054 25.0362 120.054 23.7239C120.054 22.4116 120.3 21.2356 120.801 20.2215C121.293 19.2075 121.997 18.415 122.896 17.844C123.795 17.2731 124.855 16.9919 126.076 16.9919C127.06 16.9919 127.934 17.1708 128.706 17.5373C129.478 17.9037 130.097 18.415 130.572 19.0626C131.047 19.7188 131.327 20.4857 131.42 21.3549H128.969C128.833 20.7414 128.528 20.2215 128.044 19.7784C127.561 19.3353 126.925 19.1138 126.119 19.1138C125.415 19.1138 124.804 19.3012 124.278 19.6677C123.752 20.0341 123.345 20.5624 123.048 21.2441C122.751 21.9259 122.607 22.7269 122.607 23.6557C122.607 24.5846 122.751 25.4282 123.04 26.1099C123.328 26.7916 123.735 27.337 124.261 27.712C124.787 28.0869 125.406 28.2829 126.119 28.2829C126.594 28.2829 127.035 28.1977 127.425 28.0187C127.815 27.8398 128.146 27.5841 128.409 27.2518C128.672 26.9195 128.867 26.519 128.969 26.0503H131.42C131.327 26.8939 131.055 27.6438 130.606 28.2999C130.156 28.9561 129.546 29.4844 128.782 29.8594C128.019 30.2343 127.128 30.4303 126.102 30.4303L126.093 30.4389Z" fill="black"/>
<path d="M139.707 30.4389C138.435 30.4389 137.332 30.1662 136.416 29.6123C135.5 29.0584 134.787 28.2829 134.287 27.2859C133.787 26.2889 133.541 25.1044 133.541 23.758C133.541 22.4116 133.787 21.2527 134.287 20.2301C134.787 19.216 135.483 18.4235 136.382 17.8526C137.281 17.2816 138.324 17.0004 139.529 17.0004C140.258 17.0004 140.971 17.1197 141.658 17.3668C142.345 17.614 142.956 17.9889 143.507 18.5087C144.05 19.0285 144.482 19.7017 144.796 20.5283C145.11 21.3549 145.271 22.3605 145.271 23.5364V24.4312H134.974V22.5309H142.803C142.803 21.8662 142.667 21.2697 142.396 20.7584C142.124 20.2471 141.751 19.8381 141.259 19.5313C140.767 19.2245 140.207 19.0797 139.554 19.0797C138.85 19.0797 138.231 19.2501 137.705 19.5995C137.179 19.9489 136.772 20.4005 136.492 20.9544C136.212 21.5083 136.068 22.1133 136.068 22.761V24.2437C136.068 25.1129 136.221 25.8543 136.526 26.4678C136.832 27.0814 137.264 27.5415 137.815 27.8568C138.367 28.1806 139.011 28.334 139.749 28.334C140.224 28.334 140.665 28.2659 141.056 28.1295C141.446 27.9932 141.785 27.7801 142.073 27.5074C142.362 27.2262 142.582 26.8854 142.735 26.4849L145.118 26.9195C144.923 27.6268 144.584 28.2403 144.092 28.7686C143.6 29.297 142.981 29.706 142.243 29.9957C141.505 30.2855 140.665 30.4303 139.715 30.4303L139.707 30.4389Z" fill="black"/>
<path d="M148.07 30.1747V17.1623H150.505V19.2331H150.64C150.878 18.5343 151.293 17.9804 151.896 17.5799C152.498 17.1794 153.176 16.9749 153.931 16.9749C154.092 16.9749 154.279 16.9749 154.491 16.9919C154.703 17.0089 154.881 17.0175 155 17.0345V19.4546C154.898 19.429 154.72 19.395 154.457 19.3609C154.194 19.3268 153.94 19.3097 153.685 19.3097C153.092 19.3097 152.557 19.4376 152.091 19.6847C151.624 19.9318 151.259 20.2812 150.988 20.7243C150.717 21.1674 150.581 21.6702 150.581 22.2326V30.1832H148.062L148.07 30.1747Z" fill="black"/>
<path d="M55.3281 39.6421C54.9973 39.7614 54.3442 39.9574 53.5723 39.9574C52.7071 39.9574 51.9946 39.7358 51.4348 39.199C50.9429 38.7218 50.6375 37.9548 50.6375 37.0601C50.646 35.3473 51.8165 34.0946 53.7334 34.0946C54.395 34.0946 54.9124 34.2395 55.1584 34.3588L54.9803 34.9638C54.6749 34.8274 54.2933 34.7167 53.7165 34.7167C52.3254 34.7167 51.4179 35.5859 51.4179 37.026C51.4179 38.4661 52.2915 39.3438 53.6232 39.3438C54.1067 39.3438 54.4374 39.2757 54.6071 39.1905V37.4776H53.4451V36.8811H55.3281V39.6421Z" fill="#164E63"/>
<path d="M56.8887 37.9719C56.9057 38.9859 57.5503 39.4035 58.2968 39.4035C58.8311 39.4035 59.1534 39.3098 59.4333 39.1905L59.5606 39.7273C59.2976 39.8466 58.8481 39.983 58.195 39.983C56.9312 39.983 56.1763 39.1479 56.1763 37.9037C56.1763 36.6596 56.9057 35.6796 58.1017 35.6796C59.4418 35.6796 59.7981 36.8641 59.7981 37.6225C59.7981 37.7759 59.7811 37.8952 59.7726 37.9719H56.8887ZM59.0771 37.435C59.0771 36.9578 58.882 36.2164 58.0423 36.2164C57.2874 36.2164 56.9566 36.9152 56.8972 37.435H59.0771Z" fill="#164E63"/>
<path d="M61.6217 34.5974V35.7818H62.6904V36.3528H61.6217V38.5769C61.6217 39.0882 61.7659 39.3779 62.1815 39.3779C62.3766 39.3779 62.5208 39.3524 62.6141 39.3268L62.648 39.8892C62.5038 39.9489 62.2748 39.9915 61.9864 39.9915C61.6387 39.9915 61.3588 39.8807 61.1806 39.6762C60.9686 39.4546 60.8923 39.0882 60.8923 38.6025V36.3528H60.2561V35.7818H60.8923V34.7934L61.6217 34.5974Z" fill="#164E63"/>
<path d="M65.3538 39.8977V34.1542H66.1596L67.9917 37.0601C68.4158 37.7333 68.7466 38.3383 69.018 38.9263H69.035C68.9671 38.1508 68.9501 37.4521 68.9501 36.5573V34.1542H69.6457V39.8977H68.8993L67.0841 36.9834C66.6855 36.3443 66.3038 35.6881 66.0154 35.066H65.9899C66.0323 35.7989 66.0493 36.4891 66.0493 37.4435V39.8977H65.3538Z" fill="#164E63"/>
<path d="M74.6246 37.8014C74.6246 39.3268 73.5728 39.9915 72.5804 39.9915C71.4693 39.9915 70.6126 39.1734 70.6126 37.8696C70.6126 36.4891 71.5117 35.6796 72.6483 35.6796C73.7849 35.6796 74.6246 36.5403 74.6246 37.8014ZM71.3675 37.8441C71.3675 38.7473 71.8849 39.4291 72.6144 39.4291C73.3438 39.4291 73.8612 38.7559 73.8612 37.827C73.8612 37.1282 73.5135 36.242 72.6313 36.242C71.7492 36.242 71.3675 37.0601 71.3675 37.8441Z" fill="#164E63"/>
<path d="M76.4652 34.5974V35.7818H77.5339V36.3528H76.4652V38.5769C76.4652 39.0882 76.6094 39.3779 77.025 39.3779C77.2201 39.3779 77.3643 39.3524 77.4576 39.3268L77.4915 39.8892C77.3473 39.9489 77.1183 39.9915 76.8299 39.9915C76.4822 39.9915 76.2022 39.8807 76.0241 39.6762C75.8121 39.4546 75.7357 39.0882 75.7357 38.6025V36.3528H75.0996V35.7818H75.7357V34.7934L76.4652 34.5974Z" fill="#164E63"/>
<path d="M79.2049 34.6229C79.2049 34.8786 79.0267 35.0831 78.7299 35.0831C78.4669 35.0831 78.2803 34.8786 78.2803 34.6229C78.2803 34.3673 78.4754 34.1542 78.7468 34.1542C79.0183 34.1542 79.2049 34.3588 79.2049 34.6229ZM78.3736 39.9063V35.7818H79.1201V39.9063H78.3736Z" fill="#164E63"/>
<path d="M83.2847 39.7444C83.0896 39.8466 82.6571 39.983 82.1057 39.983C80.8674 39.983 80.0616 39.1393 80.0616 37.8781C80.0616 36.617 80.9267 35.6881 82.2669 35.6881C82.7079 35.6881 83.0981 35.7989 83.3017 35.9011L83.132 36.4806C82.9539 36.3784 82.674 36.2846 82.2669 36.2846C81.3254 36.2846 80.8165 36.9834 80.8165 37.8441C80.8165 38.7985 81.4272 39.3865 82.2414 39.3865C82.6655 39.3865 82.9454 39.2757 83.1575 39.1819L83.2847 39.7444Z" fill="#164E63"/>
<path d="M84.5231 37.9719C84.5401 38.9859 85.1847 39.4035 85.9311 39.4035C86.4655 39.4035 86.7878 39.3098 87.0677 39.1905L87.1949 39.7273C86.932 39.8466 86.4824 39.983 85.8293 39.983C84.5655 39.983 83.8106 39.1479 83.8106 37.9037C83.8106 36.6596 84.5401 35.6796 85.736 35.6796C87.0762 35.6796 87.4324 36.8641 87.4324 37.6225C87.4324 37.7759 87.4155 37.8952 87.407 37.9719H84.5231ZM86.7114 37.435C86.7114 36.9578 86.5164 36.2164 85.6766 36.2164C84.9217 36.2164 84.591 36.9152 84.5316 37.435H86.7114Z" fill="#164E63"/>
<path d="M91.9024 33.856V38.8411C91.9024 39.2075 91.9024 39.6251 91.9364 39.9063H91.2663L91.2323 39.1905H91.2154C90.9864 39.6506 90.4859 40 89.8159 40C88.8235 40 88.0601 39.1564 88.0601 37.9037C88.0601 36.5317 88.8998 35.6881 89.9007 35.6881C90.5283 35.6881 90.9524 35.9864 91.139 36.3187H91.156V33.856H91.9024ZM91.156 37.4606C91.156 37.3669 91.156 37.239 91.1221 37.1453C91.0118 36.6681 90.6047 36.2761 90.0449 36.2761C89.273 36.2761 88.815 36.9578 88.815 37.8696C88.815 38.7047 89.2221 39.395 90.0279 39.395C90.5283 39.395 90.9864 39.0626 91.1221 38.5002C91.1475 38.398 91.156 38.2957 91.156 38.1764V37.4606Z" fill="#164E63"/>
<path d="M92.8779 39.4546C92.8779 39.1393 93.0899 38.9178 93.3868 38.9178C93.6836 38.9178 93.8872 39.1393 93.8872 39.4546C93.8872 39.7699 93.6921 39.9915 93.3783 39.9915C93.0814 39.9915 92.8779 39.7614 92.8779 39.4546Z" fill="#164E63"/>
<path d="M100.987 39.6421C100.656 39.7614 100.003 39.9574 99.2309 39.9574C98.3657 39.9574 97.6532 39.7358 97.0934 39.199C96.6015 38.7218 96.2961 37.9548 96.2961 37.0601C96.3046 35.3473 97.4751 34.0946 99.392 34.0946C100.054 34.0946 100.571 34.2395 100.817 34.3588L100.639 34.9638C100.334 34.8274 99.9518 34.7167 99.3751 34.7167C97.984 34.7167 97.0764 35.5859 97.0764 37.026C97.0764 38.4661 97.9501 39.3438 99.2818 39.3438C99.7652 39.3438 100.096 39.2757 100.266 39.1905V37.4776H99.1036V36.8811H100.987V39.6421Z" fill="#164E63"/>
<path d="M102.547 37.9719C102.564 38.9859 103.209 39.4035 103.955 39.4035C104.49 39.4035 104.812 39.3098 105.092 39.1905L105.219 39.7273C104.956 39.8466 104.507 39.983 103.854 39.983C102.59 39.983 101.835 39.1479 101.835 37.9037C101.835 36.6596 102.564 35.6796 103.76 35.6796C105.1 35.6796 105.457 36.8641 105.457 37.6225C105.457 37.7759 105.44 37.8952 105.431 37.9719H102.547ZM104.736 37.435C104.736 36.9578 104.541 36.2164 103.701 36.2164C102.946 36.2164 102.615 36.9152 102.556 37.435H104.736Z" fill="#164E63"/>
<path d="M107.28 34.5974V35.7818H108.349V36.3528H107.28V38.5769C107.28 39.0882 107.424 39.3779 107.84 39.3779C108.035 39.3779 108.179 39.3524 108.273 39.3268L108.307 39.8892C108.162 39.9489 107.933 39.9915 107.645 39.9915C107.297 39.9915 107.017 39.8807 106.839 39.6762C106.627 39.4546 106.551 39.0882 106.551 38.6025V36.3528H105.915V35.7818H106.551V34.7934L107.28 34.5974Z" fill="#164E63"/>
<path d="M111.75 34.1628V36.5658H114.515V34.1628H115.262V39.9063H114.515V37.2135H111.75V39.9063H111.012V34.1628H111.75Z" fill="#164E63"/>
<path d="M117.433 34.6229C117.433 34.8786 117.255 35.0831 116.958 35.0831C116.695 35.0831 116.509 34.8786 116.509 34.6229C116.509 34.3673 116.704 34.1542 116.975 34.1542C117.247 34.1542 117.433 34.3588 117.433 34.6229ZM116.602 39.9063V35.7818H117.348V39.9063H116.602Z" fill="#164E63"/>
<path d="M118.587 37.0601C118.587 36.5744 118.587 36.1568 118.553 35.7733H119.206L119.231 36.5829H119.265C119.452 36.029 119.901 35.6796 120.402 35.6796C120.487 35.6796 120.546 35.6796 120.614 35.7052V36.4124C120.538 36.3954 120.461 36.3869 120.36 36.3869C119.834 36.3869 119.46 36.7874 119.359 37.3498C119.342 37.4521 119.325 37.5714 119.325 37.6992V39.8977H118.587V37.0601Z" fill="#164E63"/>
<path d="M121.691 37.9719C121.708 38.9859 122.353 39.4035 123.099 39.4035C123.634 39.4035 123.956 39.3098 124.236 39.1905L124.363 39.7273C124.1 39.8466 123.651 39.983 122.997 39.983C121.734 39.983 120.979 39.1479 120.979 37.9037C120.979 36.6596 121.708 35.6796 122.904 35.6796C124.244 35.6796 124.601 36.8641 124.601 37.6225C124.601 37.7759 124.584 37.8952 124.575 37.9719H121.691ZM123.88 37.435C123.88 36.9578 123.684 36.2164 122.845 36.2164C122.09 36.2164 121.759 36.9152 121.7 37.435H123.88Z" fill="#164E63"/>
<path d="M129.071 33.856V38.8411C129.071 39.2075 129.071 39.6251 129.104 39.9063H128.434L128.4 39.1905H128.383C128.154 39.6506 127.654 40 126.984 40C125.992 40 125.228 39.1564 125.228 37.9037C125.228 36.5317 126.068 35.6881 127.069 35.6881C127.696 35.6881 128.121 35.9864 128.307 36.3187H128.324V33.856H129.071ZM128.324 37.4606C128.324 37.3669 128.324 37.239 128.29 37.1453C128.18 36.6681 127.773 36.2761 127.213 36.2761C126.441 36.2761 125.983 36.9578 125.983 37.8696C125.983 38.7047 126.39 39.395 127.196 39.395C127.696 39.395 128.154 39.0626 128.29 38.5002C128.316 38.398 128.324 38.2957 128.324 38.1764V37.4606Z" fill="#164E63"/>
<path d="M130.046 39.4546C130.046 39.1393 130.258 38.9178 130.555 38.9178C130.852 38.9178 131.055 39.1393 131.055 39.4546C131.055 39.7699 130.86 39.9915 130.546 39.9915C130.25 39.9915 130.046 39.7614 130.046 39.4546Z" fill="#164E63"/>
</svg>
