<svg width="1257" height="940" viewBox="0 0 1257 940" fill="none" xmlns="http://www.w3.org/2000/svg">
<mask id="mask0_83_1357" style="mask-type:alpha" maskUnits="userSpaceOnUse" x="0" y="0" width="1744" height="1525">
<rect width="1488.35" height="1179.21" transform="matrix(-0.965926 0.258819 0.258819 0.965926 1438.39 0)" fill="white"/>
</mask>
<g mask="url(#mask0_83_1357)">
<mask id="mask1_83_1357" style="mask-type:luminance" maskUnits="userSpaceOnUse" x="0" y="0" width="1744" height="1525">
<path d="M0.75614 385.213L1438.39 0L1743.59 1139.03L305.958 1524.24L0.75614 385.213Z" fill="white"/>
</mask>
<g mask="url(#mask1_83_1357)">
<path d="M1400.59 728.109L1293.65 996.044L1402.23 1079.26L1400.59 728.109Z" fill="#249597"/>
<path d="M1400.59 728.109L1302.99 685.896L1293.65 996.044L1400.59 728.109Z" fill="#196576"/>
<path d="M1302.99 685.896L1197.44 943.691L1293.65 996.044L1302.99 685.896Z" fill="#91CBC7"/>
<path d="M1302.99 685.896L1136.52 869.675L1197.44 943.691L1302.99 685.896Z" fill="#C0DFDC"/>
<path d="M1197.44 943.691L1036.8 972.891L1136.52 869.675L1197.44 943.691Z" fill="#5EBBB8"/>
<path d="M1293.65 996.044L1197.44 943.691L1230.94 1109.75L1293.65 996.044Z" fill="#2DA6A4"/>
<path d="M1197.44 943.691L1141.19 1124.79L1036.8 972.891L1197.44 943.691Z" fill="#91CBC7"/>
<path d="M1351.82 404.235L1302.99 685.896L1455.38 618.207L1351.82 404.235Z" fill="#C0DFDC"/>
<path d="M1302.99 685.896L1351.82 404.235L1179.58 508.986L1302.99 685.896Z" fill="#D6E5E6"/>
<path d="M1179.58 508.987L1136.52 869.675L1302.99 685.896L1179.58 508.987Z" fill="#B7D5D4"/>
<path d="M1136.52 869.675L893.849 868.774L1036.8 972.891L1136.52 869.675Z" fill="#E6EDEA"/>
<path d="M893.849 868.774L856.059 996.098L1036.8 972.891L893.849 868.774Z" fill="#F4F1F4"/>
<path d="M1179.58 508.987L1054.93 273.809L1351.82 404.235L1179.58 508.987Z" fill="#B7D5D4"/>
<path d="M1363.95 100.665L1054.93 273.809L1351.82 404.235L1363.95 100.665Z" fill="#C0DFDC"/>
<path d="M1363.95 100.665L1210.8 5.21688L1054.93 273.809L1363.95 100.665Z" fill="#91CBC7"/>
<path d="M1179.58 508.987L893.849 868.774L1136.52 869.675L1179.58 508.987Z" fill="#F4F1F4"/>
<path d="M1456.55 -29.1361L1363.95 100.665L1210.8 5.21692L1456.55 -29.1361Z" fill="#F4F1F4"/>
<path d="M521.58 874.912L845.645 1051.77L663.473 1220.45L521.58 874.912Z" fill="#E6EDEA"/>
<path d="M856.059 996.097L521.58 874.912L845.645 1051.77L856.059 996.097Z" fill="#F4F1F4"/>
<path d="M663.473 1220.44L543.836 1187.99L521.58 874.912L663.473 1220.44Z" fill="#C0DFDC"/>
<path d="M521.58 874.912L353.845 1240.54L543.836 1187.99L521.58 874.912Z" fill="#F4F1F4"/>
<path d="M843.68 965.232L862.655 867.366L704.949 899.857L843.68 965.232Z" fill="#E6EDEA"/>
<path d="M327.143 1146.56L343.143 838.317L198.382 1045.55L327.143 1146.56Z" fill="#E6EDEA"/>
<path d="M134.552 818.299L152.339 877.015L204.522 826.409L134.552 818.299Z" fill="#F4F1F4"/>
<path d="M1139.98 499.233L1017.55 273.082L921.904 364.608L1139.98 499.233Z" fill="#E6EDEA"/>
<path d="M429.597 861.323L421.78 985.498L485.092 873.531L429.597 861.323Z" fill="#F4F1F4"/>
<path d="M162.169 798.691L64.9239 780.799L101.162 732.023L162.169 798.691Z" fill="#F4F1F4"/>
<path d="M1121.6 8.9252L1006.95 209.754L895.412 69.5321L1121.6 8.9252Z" fill="#F4F1F4"/>
<path d="M827.26 820.302L742.322 813.762L763.593 754.518L827.26 820.302Z" fill="#F4F1F4"/>
<path d="M989.863 434.296L906.483 376.065L830.297 436.765L989.863 434.296Z" fill="#F4F1F4"/>
<path d="M1140.63 516.981L865.712 641.088L926.325 724.147L1140.63 516.981Z" fill="#F4F1F4"/>
</g>
</g>
</svg>
